<?xml version="1.0" encoding="utf-8"?>
<!-- Generator: Adobe Illustrator 27.7.0, SVG Export Plug-In . SVG Version: 6.00 Build 0)  -->
<svg version="1.1" id="Layer_1" xmlns="http://www.w3.org/2000/svg" xmlns:xlink="http://www.w3.org/1999/xlink" x="0px" y="0px"
	 viewBox="0 0 33.2 16.8" style="enable-background:new 0 0 33.2 16.8;" xml:space="preserve">
<style type="text/css">
	.st0{fill:#E6E6E5;}
	.st1{fill:#060607;}
	.st2{fill:#363838;}
</style>
<g>
	<path class="st0" d="M7.3,0L7.3,0c0.1,0,0.2,0,0.2,0s0,0-0.1,0.1C7.4,0.1,7.3,0.1,7.3,0z"/>
	<path class="st1" d="M7.3,0c0.1,0,0.1,0,0.2,0s0.2,0.1,0.2,0.1c0.6,0.2,0.8,1,0.4,1.5C7.6,2.3,7,3,6.5,3.6c-0.7,0.8-1.3,1.6-2,2.3
		C4.1,6.4,3.7,6.8,3.4,7.2c0,0,0,0.1-0.1,0.2c0.1,0,0.1,0,0.2,0c4.8,0,9.6,0,14.4,0c4.6,0,9.2,0,13.8,0c0.3,0,0.5,0,0.8,0.1
		c0.5,0.1,0.8,0.5,0.7,1c0,0.4-0.3,0.8-0.8,0.9c-0.2,0-0.3,0.1-0.5,0.1c-9.5,0-18.9,0-28.4,0c-0.1,0-0.2,0-0.3,0
		c0.4,0.4,0.7,0.8,1,1.2c0.7,0.8,1.4,1.6,2.1,2.4c0.5,0.6,1.1,1.2,1.6,1.8c0.4,0.5,0.5,0.9,0.3,1.3c-0.2,0.5-1,0.8-1.5,0.3
		s-0.9-1-1.3-1.5s-0.8-0.9-1.2-1.4c-0.6-0.7-1.3-1.5-1.9-2.2c-0.4-0.5-0.9-1-1.3-1.5C0.7,9.6,0.5,9.3,0.2,9C-0.2,8.5,0,8,0.4,7.6
		c0.7-0.8,1.4-1.7,2.2-2.5c0.6-0.7,1.3-1.5,1.9-2.2c0.6-0.8,1.3-1.5,1.9-2.3C6.7,0.3,6.9,0.1,7.3,0z"/>
	<path class="st2" d="M3.5,7.4c-0.1,0-0.1,0-0.2,0C3.4,7.4,3.4,7.4,3.5,7.4z"/>
</g>
</svg>
